<?xml version="1.0" standalone="no"?><!DOCTYPE svg PUBLIC "-//W3C//DTD SVG 1.1//EN" "http://www.w3.org/Graphics/SVG/1.1/DTD/svg11.dtd"><svg t="1615723495479" class="icon" viewBox="0 0 1024 1024" version="1.1" xmlns="http://www.w3.org/2000/svg" p-id="32376" xmlns:xlink="http://www.w3.org/1999/xlink" width="200" height="200"><defs><style type="text/css"></style></defs><path d="M546.14016 477.89056h-68.28032a34.0992 34.0992 0 0 1-34.11968-34.12992h-0.04096l0.04096-0.04096A34.0992 34.0992 0 0 1 477.85984 409.6v-0.04096 0.07168h68.28032a34.0992 34.0992 0 0 1 34.11968 34.12992h68.27008c0-56.53504-45.86496-102.4-102.38976-102.44096v-68.22912h-68.28032v68.27008-0.04096c-56.5248 0-102.4 45.84448-102.4 102.4v0.04096c0 56.53504 45.8752 102.4 102.4 102.4h68.28032a34.0992 34.0992 0 0 1 34.11968 34.14016h-0.06144a34.0992 34.0992 0 0 1-34.12992 34.11968h-68.21888a34.0992 34.0992 0 0 1-34.11968-34.11968h-68.27008c0 56.5248 45.8752 102.4 102.4 102.4v68.25984h68.28032V682.7008c56.5248-0.08192 102.35904-45.8752 102.35904-102.4h0.03072c0-56.54528-45.86496-102.41024-102.38976-102.41024z" p-id="32377"></path><path d="M901.70368 463.7696l-55.8592-55.86944c-13.27104-13.2608-24.13568-39.53664-24.13568-58.2656v-79.03232c0-37.53984-30.68928-68.22912-68.25984-68.25984H674.4064c-18.76992 0-45.0048-10.88512-58.2656-24.14592l-55.86944-55.8592c-26.5216-26.5728-70.00064-26.5728-96.52224 0l-55.86944 55.88992c-13.27104 13.27104-39.53664 24.14592-58.2656 24.14592h-79.01184c-37.51936 0-68.25984 30.68928-68.25984 68.25984v78.97088c0 18.75968-10.86464 45.0048-24.14592 58.2656l-55.84896 55.90016c-26.58304 26.53184-26.58304 69.95968 0 96.53248l55.84896 55.8592c13.28128 13.2608 24.14592 39.53664 24.14592 58.25536v79.02208c0 37.51936 30.74048 68.25984 68.25984 68.25984h79.01184c18.75968 0 44.99456 10.86464 58.2656 24.1152l55.86944 55.87968c26.5216 26.5216 70.00064 26.5216 96.52224 0l55.86944-55.87968c13.27104-13.2608 39.49568-24.1152 58.2656-24.1152h79.04256c37.57056 0 68.25984-30.74048 68.25984-68.25984v-79.02208c0-18.80064 10.87488-45.0048 24.13568-58.25536l55.8592-55.8592c26.53184-26.58304 26.53184-70.01088 0-96.53248zM797.57312 567.90016c-25.99936 25.91744-44.1344 69.79584-44.1344 106.51648v79.02208h-79.04256c-36.73088 0-80.56832 18.1248-106.53696 44.12416L512 853.42208l-55.8592-55.8592c-25.99936-25.99936-69.80608-44.12416-106.53696-44.12416h-79.01184v-79.02208c0-36.72064-18.1248-80.51712-44.12416-106.51648l-55.88992-55.86944 55.88992-55.9104c25.99936-25.9584 44.12416-69.76512 44.12416-106.52672v-78.97088h79.01184c36.73088 0 80.5376-18.16576 106.53696-44.14464L512 170.5984l55.86944 55.86944c25.96864 25.96864 69.80608 44.14464 106.53696 44.14464h79.04256v79.03232c0 36.73088 18.13504 80.5376 44.1344 106.53696l55.86944 55.86944-55.87968 55.84896z" p-id="32378"></path></svg>